<svg id="visual" viewBox="0 0 900 600" width="900" height="600" xmlns="http://www.w3.org/2000/svg" xmlns:xlink="http://www.w3.org/1999/xlink" version="1.1"><rect x="0" y="0" width="900" height="600" fill="#001220"></rect><path d="M0 446L21.5 445.2C43 444.3 86 442.7 128.8 433.8C171.7 425 214.3 409 257.2 406.7C300 404.3 343 415.7 385.8 423.2C428.7 430.7 471.3 434.3 514.2 422.5C557 410.7 600 383.3 642.8 380.7C685.7 378 728.3 400 771.2 409C814 418 857 414 878.5 412L900 410L900 601L878.5 601C857 601 814 601 771.2 601C728.3 601 685.7 601 642.8 601C600 601 557 601 514.2 601C471.3 601 428.7 601 385.8 601C343 601 300 601 257.2 601C214.3 601 171.7 601 128.8 601C86 601 43 601 21.5 601L0 601Z" fill="#fa7268"></path><path d="M0 425L21.5 428.3C43 431.7 86 438.3 128.8 444.3C171.7 450.3 214.3 455.7 257.2 456.5C300 457.3 343 453.7 385.8 443.8C428.7 434 471.3 418 514.2 420.8C557 423.7 600 445.3 642.8 445.3C685.7 445.3 728.3 423.7 771.2 423.7C814 423.7 857 445.3 878.5 456.2L900 467L900 601L878.5 601C857 601 814 601 771.2 601C728.3 601 685.7 601 642.8 601C600 601 557 601 514.2 601C471.3 601 428.7 601 385.8 601C343 601 300 601 257.2 601C214.3 601 171.7 601 128.8 601C86 601 43 601 21.5 601L0 601Z" fill="#cf5f92"></path><path d="M0 486L21.5 489.5C43 493 86 500 128.8 493.7C171.7 487.3 214.3 467.7 257.2 466C300 464.3 343 480.7 385.8 480.3C428.7 480 471.3 463 514.2 462.7C557 462.3 600 478.7 642.8 484.2C685.7 489.7 728.3 484.3 771.2 474.8C814 465.3 857 451.7 878.5 444.8L900 438L900 601L878.5 601C857 601 814 601 771.2 601C728.3 601 685.7 601 642.8 601C600 601 557 601 514.2 601C471.3 601 428.7 601 385.8 601C343 601 300 601 257.2 601C214.3 601 171.7 601 128.8 601C86 601 43 601 21.5 601L0 601Z" fill="#8760a0"></path><path d="M0 501L21.5 504.5C43 508 86 515 128.8 513C171.7 511 214.3 500 257.2 494.7C300 489.3 343 489.7 385.8 489.5C428.7 489.3 471.3 488.7 514.2 494.5C557 500.3 600 512.7 642.8 518C685.7 523.3 728.3 521.7 771.2 520.3C814 519 857 518 878.5 517.5L900 517L900 601L878.5 601C857 601 814 601 771.2 601C728.3 601 685.7 601 642.8 601C600 601 557 601 514.2 601C471.3 601 428.7 601 385.8 601C343 601 300 601 257.2 601C214.3 601 171.7 601 128.8 601C86 601 43 601 21.5 601L0 601Z" fill="#3a5b8b"></path><path d="M0 539L21.5 540.5C43 542 86 545 128.8 542.8C171.7 540.7 214.3 533.3 257.2 531.5C300 529.7 343 533.3 385.8 535.7C428.7 538 471.3 539 514.2 543C557 547 600 554 642.8 559.2C685.7 564.3 728.3 567.7 771.2 562.5C814 557.3 857 543.7 878.5 536.8L900 530L900 601L878.5 601C857 601 814 601 771.2 601C728.3 601 685.7 601 642.8 601C600 601 557 601 514.2 601C471.3 601 428.7 601 385.8 601C343 601 300 601 257.2 601C214.3 601 171.7 601 128.8 601C86 601 43 601 21.5 601L0 601Z" fill="#084c61"></path></svg>