<svg id="visual" viewBox="0 0 900 600" width="900" height="600" xmlns="http://www.w3.org/2000/svg" xmlns:xlink="http://www.w3.org/1999/xlink" version="1.1"><rect x="0" y="0" width="900" height="600" fill="#000a11"></rect><path d="M0 407L21.5 403.8C43 400.7 86 394.3 128.8 401.3C171.7 408.3 214.3 428.7 257.2 433.3C300 438 343 427 385.8 416.5C428.7 406 471.3 396 514.2 400.5C557 405 600 424 642.8 424.2C685.7 424.3 728.3 405.7 771.2 394.7C814 383.7 857 380.3 878.5 378.7L900 377L900 601L878.5 601C857 601 814 601 771.2 601C728.3 601 685.7 601 642.8 601C600 601 557 601 514.2 601C471.3 601 428.7 601 385.8 601C343 601 300 601 257.2 601C214.3 601 171.7 601 128.8 601C86 601 43 601 21.5 601L0 601Z" fill="#faf669"></path><path d="M0 479L21.5 467.2C43 455.3 86 431.7 128.8 429.7C171.7 427.7 214.3 447.3 257.2 455.3C300 463.3 343 459.7 385.8 447.7C428.7 435.7 471.3 415.3 514.2 413C557 410.7 600 426.3 642.8 427.5C685.7 428.7 728.3 415.3 771.2 419.3C814 423.3 857 444.7 878.5 455.3L900 466L900 601L878.5 601C857 601 814 601 771.2 601C728.3 601 685.7 601 642.8 601C600 601 557 601 514.2 601C471.3 601 428.7 601 385.8 601C343 601 300 601 257.2 601C214.3 601 171.7 601 128.8 601C86 601 43 601 21.5 601L0 601Z" fill="#fdcd36"></path><path d="M0 468L21.5 466.8C43 465.7 86 463.3 128.8 470C171.7 476.7 214.3 492.3 257.2 496.7C300 501 343 494 385.8 493.5C428.7 493 471.3 499 514.2 498.8C557 498.7 600 492.3 642.8 484.8C685.7 477.3 728.3 468.7 771.2 461.7C814 454.7 857 449.3 878.5 446.7L900 444L900 601L878.5 601C857 601 814 601 771.2 601C728.3 601 685.7 601 642.8 601C600 601 557 601 514.2 601C471.3 601 428.7 601 385.8 601C343 601 300 601 257.2 601C214.3 601 171.7 601 128.8 601C86 601 43 601 21.5 601L0 601Z" fill="#ffa000"></path><path d="M0 504L21.5 503.3C43 502.7 86 501.3 128.8 504.7C171.7 508 214.3 516 257.2 513.2C300 510.3 343 496.7 385.8 498.7C428.7 500.7 471.3 518.3 514.2 526.3C557 534.3 600 532.7 642.8 533.7C685.7 534.7 728.3 538.3 771.2 531.5C814 524.7 857 507.3 878.5 498.7L900 490L900 601L878.5 601C857 601 814 601 771.2 601C728.3 601 685.7 601 642.8 601C600 601 557 601 514.2 601C471.3 601 428.7 601 385.8 601C343 601 300 601 257.2 601C214.3 601 171.7 601 128.8 601C86 601 43 601 21.5 601L0 601Z" fill="#ff6c00"></path><path d="M0 524L21.5 526.5C43 529 86 534 128.8 542.2C171.7 550.3 214.3 561.7 257.2 565.5C300 569.3 343 565.7 385.8 563C428.7 560.3 471.3 558.7 514.2 556.8C557 555 600 553 642.8 548.2C685.7 543.3 728.3 535.7 771.2 531.3C814 527 857 526 878.5 525.5L900 525L900 601L878.5 601C857 601 814 601 771.2 601C728.3 601 685.7 601 642.8 601C600 601 557 601 514.2 601C471.3 601 428.7 601 385.8 601C343 601 300 601 257.2 601C214.3 601 171.7 601 128.8 601C86 601 43 601 21.5 601L0 601Z" fill="#ff0000"></path></svg>