<svg id="visual" viewBox="0 0 900 600" width="900" height="600" xmlns="http://www.w3.org/2000/svg" xmlns:xlink="http://www.w3.org/1999/xlink" version="1.1"><rect x="0" y="0" width="900" height="600" fill="#d9dbbc"></rect><path d="M0 38L15 39.2C30 40.3 60 42.7 90 44.5C120 46.3 150 47.7 180 47C210 46.3 240 43.7 270 41.5C300 39.3 330 37.7 360 38.2C390 38.7 420 41.3 450 44.8C480 48.3 510 52.7 540 50.8C570 49 600 41 630 38.2C660 35.3 690 37.7 720 41C750 44.3 780 48.7 810 48.8C840 49 870 45 885 43L900 41L900 0L885 0C870 0 840 0 810 0C780 0 750 0 720 0C690 0 660 0 630 0C600 0 570 0 540 0C510 0 480 0 450 0C420 0 390 0 360 0C330 0 300 0 270 0C240 0 210 0 180 0C150 0 120 0 90 0C60 0 30 0 15 0L0 0Z" fill="#ff0000"></path><path d="M0 42L15 40.8C30 39.7 60 37.3 90 37.8C120 38.3 150 41.7 180 41.2C210 40.7 240 36.3 270 34.3C300 32.3 330 32.7 360 33.8C390 35 420 37 450 39.2C480 41.3 510 43.7 540 44.7C570 45.7 600 45.3 630 43.5C660 41.7 690 38.3 720 38.2C750 38 780 41 810 42.8C840 44.7 870 45.3 885 45.7L900 46L900 0L885 0C870 0 840 0 810 0C780 0 750 0 720 0C690 0 660 0 630 0C600 0 570 0 540 0C510 0 480 0 450 0C420 0 390 0 360 0C330 0 300 0 270 0C240 0 210 0 180 0C150 0 120 0 90 0C60 0 30 0 15 0L0 0Z" fill="#ff0000"></path><path d="M0 31L15 33C30 35 60 39 90 38.8C120 38.7 150 34.3 180 31.5C210 28.7 240 27.3 270 27.3C300 27.3 330 28.7 360 29C390 29.3 420 28.7 450 28.5C480 28.3 510 28.7 540 29.2C570 29.7 600 30.3 630 30.2C660 30 690 29 720 28.3C750 27.7 780 27.3 810 26.7C840 26 870 25 885 24.5L900 24L900 0L885 0C870 0 840 0 810 0C780 0 750 0 720 0C690 0 660 0 630 0C600 0 570 0 540 0C510 0 480 0 450 0C420 0 390 0 360 0C330 0 300 0 270 0C240 0 210 0 180 0C150 0 120 0 90 0C60 0 30 0 15 0L0 0Z" fill="#ff0000"></path><path d="M0 21L15 22C30 23 60 25 90 27.2C120 29.3 150 31.7 180 31.5C210 31.3 240 28.7 270 28.5C300 28.3 330 30.7 360 32.3C390 34 420 35 450 35.7C480 36.3 510 36.7 540 35.3C570 34 600 31 630 28.3C660 25.7 690 23.3 720 23.2C750 23 780 25 810 26.7C840 28.3 870 29.7 885 30.3L900 31L900 0L885 0C870 0 840 0 810 0C780 0 750 0 720 0C690 0 660 0 630 0C600 0 570 0 540 0C510 0 480 0 450 0C420 0 390 0 360 0C330 0 300 0 270 0C240 0 210 0 180 0C150 0 120 0 90 0C60 0 30 0 15 0L0 0Z" fill="#ff0000"></path><path d="M0 31L15 30.3C30 29.7 60 28.3 90 27.5C120 26.7 150 26.3 180 26.8C210 27.3 240 28.7 270 29.3C300 30 330 30 360 29.2C390 28.3 420 26.7 450 24.5C480 22.3 510 19.7 540 18.3C570 17 600 17 630 19.3C660 21.7 690 26.3 720 27.3C750 28.3 780 25.7 810 23.7C840 21.7 870 20.3 885 19.7L900 19L900 0L885 0C870 0 840 0 810 0C780 0 750 0 720 0C690 0 660 0 630 0C600 0 570 0 540 0C510 0 480 0 450 0C420 0 390 0 360 0C330 0 300 0 270 0C240 0 210 0 180 0C150 0 120 0 90 0C60 0 30 0 15 0L0 0Z" fill="#ff0000"></path><path d="M0 21L15 20.3C30 19.7 60 18.3 90 16.7C120 15 150 13 180 11.8C210 10.7 240 10.3 270 11.5C300 12.7 330 15.3 360 17.7C390 20 420 22 450 22.8C480 23.7 510 23.3 540 23.2C570 23 600 23 630 22.2C660 21.3 690 19.7 720 19.3C750 19 780 20 810 19.5C840 19 870 17 885 16L900 15L900 0L885 0C870 0 840 0 810 0C780 0 750 0 720 0C690 0 660 0 630 0C600 0 570 0 540 0C510 0 480 0 450 0C420 0 390 0 360 0C330 0 300 0 270 0C240 0 210 0 180 0C150 0 120 0 90 0C60 0 30 0 15 0L0 0Z" fill="#ff0000"></path><path d="M0 6L15 7.8C30 9.7 60 13.3 90 15C120 16.7 150 16.3 180 15C210 13.7 240 11.3 270 10.3C300 9.3 330 9.7 360 9.7C390 9.7 420 9.3 450 9.3C480 9.3 510 9.7 540 9.5C570 9.3 600 8.7 630 9.2C660 9.7 690 11.3 720 11C750 10.7 780 8.3 810 7.3C840 6.3 870 6.7 885 6.8L900 7L900 0L885 0C870 0 840 0 810 0C780 0 750 0 720 0C690 0 660 0 630 0C600 0 570 0 540 0C510 0 480 0 450 0C420 0 390 0 360 0C330 0 300 0 270 0C240 0 210 0 180 0C150 0 120 0 90 0C60 0 30 0 15 0L0 0Z" fill="#ff0000"></path><path d="M0 2L15 2C30 2 60 2 90 2.7C120 3.3 150 4.7 180 4.8C210 5 240 4 270 3.7C300 3.3 330 3.7 360 3.2C390 2.7 420 1.3 450 0.8C480 0.3 510 0.7 540 0.7C570 0.7 600 0.3 630 1.7C660 3 690 6 720 7.2C750 8.3 780 7.7 810 7C840 6.3 870 5.7 885 5.3L900 5L900 0L885 0C870 0 840 0 810 0C780 0 750 0 720 0C690 0 660 0 630 0C600 0 570 0 540 0C510 0 480 0 450 0C420 0 390 0 360 0C330 0 300 0 270 0C240 0 210 0 180 0C150 0 120 0 90 0C60 0 30 0 15 0L0 0Z" fill="#ff0000"></path></svg>