<svg id="visual" viewBox="0 0 960 540" width="960" height="540" xmlns="http://www.w3.org/2000/svg" xmlns:xlink="http://www.w3.org/1999/xlink" version="1.1"><path d="M0 136L26.7 133.3C53.3 130.7 106.7 125.3 160 133.5C213.3 141.7 266.7 163.3 320 164.2C373.3 165 426.7 145 480 137.7C533.3 130.3 586.7 135.7 640 138.3C693.3 141 746.7 141 800 143.8C853.3 146.7 906.7 152.3 933.3 155.2L960 158L960 0L933.3 0C906.7 0 853.3 0 800 0C746.7 0 693.3 0 640 0C586.7 0 533.3 0 480 0C426.7 0 373.3 0 320 0C266.7 0 213.3 0 160 0C106.7 0 53.3 0 26.7 0L0 0Z" fill="#4c3f91"></path><path d="M0 201L26.7 198.3C53.3 195.7 106.7 190.3 160 201.2C213.3 212 266.7 239 320 239C373.3 239 426.7 212 480 200.2C533.3 188.3 586.7 191.7 640 195.2C693.3 198.7 746.7 202.3 800 208.7C853.3 215 906.7 224 933.3 228.5L960 233L960 156L933.3 153.2C906.7 150.3 853.3 144.7 800 141.8C746.7 139 693.3 139 640 136.3C586.7 133.7 533.3 128.3 480 135.7C426.7 143 373.3 163 320 162.2C266.7 161.3 213.3 139.7 160 131.5C106.7 123.3 53.3 128.7 26.7 131.3L0 134Z" fill="#7a4097"></path><path d="M0 266L26.7 267.7C53.3 269.3 106.7 272.7 160 282.5C213.3 292.3 266.7 308.7 320 307C373.3 305.3 426.7 285.7 480 274C533.3 262.3 586.7 258.7 640 265.8C693.3 273 746.7 291 800 302.7C853.3 314.3 906.7 319.7 933.3 322.3L960 325L960 231L933.3 226.5C906.7 222 853.3 213 800 206.7C746.7 200.3 693.3 196.7 640 193.2C586.7 189.7 533.3 186.3 480 198.2C426.7 210 373.3 237 320 237C266.7 237 213.3 210 160 199.2C106.7 188.3 53.3 193.7 26.7 196.3L0 199Z" fill="#a24196"></path><path d="M0 433L26.7 433C53.3 433 106.7 433 160 431.2C213.3 429.3 266.7 425.7 320 423C373.3 420.3 426.7 418.7 480 418.7C533.3 418.7 586.7 420.3 640 423.8C693.3 427.3 746.7 432.7 800 434.5C853.3 436.3 906.7 434.7 933.3 433.8L960 433L960 323L933.3 320.3C906.7 317.7 853.3 312.3 800 300.7C746.7 289 693.3 271 640 263.8C586.7 256.7 533.3 260.3 480 272C426.7 283.7 373.3 303.3 320 305C266.7 306.7 213.3 290.3 160 280.5C106.7 270.7 53.3 267.3 26.7 265.7L0 264Z" fill="#c74290"></path><path d="M0 482L26.7 485.5C53.3 489 106.7 496 160 495C213.3 494 266.7 485 320 482.3C373.3 479.7 426.7 483.3 480 483.3C533.3 483.3 586.7 479.7 640 478.8C693.3 478 746.7 480 800 481.8C853.3 483.7 906.7 485.3 933.3 486.2L960 487L960 431L933.3 431.8C906.7 432.7 853.3 434.3 800 432.5C746.7 430.7 693.3 425.3 640 421.8C586.7 418.3 533.3 416.7 480 416.7C426.7 416.7 373.3 418.3 320 421C266.7 423.7 213.3 427.3 160 429.2C106.7 431 53.3 431 26.7 431L0 431Z" fill="#e64885"></path><path d="M0 541L26.7 541C53.3 541 106.7 541 160 541C213.3 541 266.7 541 320 541C373.3 541 426.7 541 480 541C533.3 541 586.7 541 640 541C693.3 541 746.7 541 800 541C853.3 541 906.7 541 933.3 541L960 541L960 485L933.3 484.2C906.7 483.3 853.3 481.7 800 479.8C746.7 478 693.3 476 640 476.8C586.7 477.7 533.3 481.3 480 481.3C426.7 481.3 373.3 477.7 320 480.3C266.7 483 213.3 492 160 493C106.7 494 53.3 487 26.7 483.5L0 480Z" fill="#ff5677"></path></svg>